<!DOCTYPE svg PUBLIC "-//W3C//DTD SVG 1.1//EN" "http://www.w3.org/Graphics/SVG/1.1/DTD/svg11.dtd">
<!-- Uploaded to: SVG Repo, www.svgrepo.com, Transformed by: SVG Repo Mixer Tools -->
<svg height="800px" width="800px" version="1.1" id="Layer_1" xmlns="http://www.w3.org/2000/svg" xmlns:xlink="http://www.w3.org/1999/xlink" viewBox="0 0 512 512" xml:space="preserve" fill="#ffffff">
<g id="SVGRepo_bgCarrier" stroke-width="0"/>
<g id="SVGRepo_tracerCarrier" stroke-linecap="round" stroke-linejoin="round"/>
<g id="SVGRepo_iconCarrier"> <path style="fill:#E4EAF6;" d="M503.172,370.759H8.828c-4.875,0-8.828-3.953-8.828-8.828V150.069c0-4.875,3.953-8.828,8.828-8.828 h494.345c4.875,0,8.828,3.953,8.828,8.828v211.862C512,366.806,508.047,370.759,503.172,370.759z"/> <path style="fill:#515262;" d="M485.517,353.103H26.483c-4.875,0-8.828-3.953-8.828-8.828V185.379c0-4.875,3.953-8.828,8.828-8.828 h459.034c4.875,0,8.828,3.953,8.828,8.828v158.897C494.345,349.151,490.392,353.103,485.517,353.103z"/> <path style="fill:#E4EAF6;" d="M317.793,326.621H194.207c-4.875,0-8.828-3.953-8.828-8.828V291.31c0-4.875,3.953-8.828,8.828-8.828 h123.586c4.875,0,8.828,3.953,8.828,8.828v26.483C326.621,322.668,322.668,326.621,317.793,326.621z"/> <g> <path style="fill:#707487;" d="M317.793,273.655H194.207c-4.875,0-8.828-3.953-8.828-8.828V256c0-4.875,3.953-8.828,8.828-8.828 h123.586c4.875,0,8.828,3.953,8.828,8.828v8.828C326.621,269.703,322.668,273.655,317.793,273.655z"/> <path style="fill:#707487;" d="M317.793,238.345H194.207c-4.875,0-8.828-3.953-8.828-8.828v-8.828c0-4.875,3.953-8.828,8.828-8.828 h123.586c4.875,0,8.828,3.953,8.828,8.828v8.828C326.621,234.392,322.668,238.345,317.793,238.345z"/> <path style="fill:#707487;" d="M317.793,203.034H194.207c-4.875,0-8.828-3.953-8.828-8.828v-17.655h141.241v17.655 C326.621,199.082,322.668,203.034,317.793,203.034z"/> <path style="fill:#707487;" d="M194.207,335.448h123.586c4.875,0,8.828,3.953,8.828,8.828v8.828H185.379v-8.828 C185.379,339.401,189.332,335.448,194.207,335.448z"/> </g> <g> <path style="fill:#515262;" d="M211.862,313.379h26.483c4.875,0,8.828-3.953,8.828-8.828l0,0c0-4.875-3.953-8.828-8.828-8.828 h-26.483c-4.875,0-8.828,3.953-8.828,8.828l0,0C203.034,309.427,206.987,313.379,211.862,313.379z"/> <path style="fill:#515262;" d="M273.655,313.379h26.483c4.875,0,8.828-3.953,8.828-8.828l0,0c0-4.875-3.953-8.828-8.828-8.828 h-26.483c-4.875,0-8.828,3.953-8.828,8.828l0,0C264.828,309.427,268.78,313.379,273.655,313.379z"/> </g> <path style="fill:#464655;" d="M141.241,256h-22.069v-22.069c0-4.875-3.953-8.828-8.828-8.828H92.69 c-4.875,0-8.828,3.953-8.828,8.828V256H61.793c-4.875,0-8.828,3.953-8.828,8.828v17.655c0,4.875,3.953,8.828,8.828,8.828h22.069 v22.069c0,4.875,3.953,8.828,8.828,8.828h17.655c4.875,0,8.828-3.953,8.828-8.828V291.31h22.069c4.875,0,8.828-3.953,8.828-8.828 v-17.655C150.069,259.953,146.116,256,141.241,256z"/> <g> <path style="fill:#E4EAF6;" d="M110.345,225.103c4.875,0,8.828,3.953,8.828,8.828V256h22.069c4.875,0,8.828,3.953,8.828,8.828 v17.655c0,4.875-3.953,8.828-8.828,8.828h-22.069v22.069c0,4.875-3.953,8.828-8.828,8.828H92.69c-4.876,0-8.828-3.953-8.828-8.828 V291.31H61.793c-4.876,0-8.828-3.953-8.828-8.828v-17.655c0-4.875,3.951-8.828,8.828-8.828h22.069v-22.069 c0-4.875,3.951-8.828,8.828-8.828H110.345 M110.345,216.276H92.69c-9.735,0-17.655,7.921-17.655,17.655v13.241H61.793 c-9.735,0-17.655,7.921-17.655,17.655v17.655c0,9.735,7.921,17.655,17.655,17.655h13.241v13.241 c0,9.735,7.921,17.655,17.655,17.655h17.655c9.735,0,17.655-7.921,17.655-17.655v-13.241h13.241 c9.735,0,17.655-7.921,17.655-17.655v-17.655c0-9.735-7.921-17.655-17.655-17.655H128v-13.241 C128,224.196,120.079,216.276,110.345,216.276L110.345,216.276z"/> <path style="fill:#E4EAF6;" d="M392.426,278.471h-30.495c-4.875,0-8.828,3.953-8.828,8.828v30.495c0,4.875,3.953,8.828,8.828,8.828 h30.495c4.875,0,8.828-3.953,8.828-8.828v-30.495C401.254,282.422,397.302,278.471,392.426,278.471z"/> <path style="fill:#E4EAF6;" d="M450.207,278.471h-30.495c-4.875,0-8.828,3.953-8.828,8.828v30.495c0,4.875,3.953,8.828,8.828,8.828 h30.495c4.875,0,8.828-3.953,8.828-8.828v-30.495C459.034,282.422,455.082,278.471,450.207,278.471z"/> </g> <g> <circle style="fill:#FF6464;" cx="377.181" cy="302.543" r="19.261"/> <circle style="fill:#FF6464;" cx="434.957" cy="302.543" r="19.261"/> </g> <circle style="fill:#515262;" cx="101.517" cy="273.655" r="11.034"/> </g>
</svg>