<!DOCTYPE svg PUBLIC "-//W3C//DTD SVG 1.1//EN" "http://www.w3.org/Graphics/SVG/1.1/DTD/svg11.dtd">
<!-- Uploaded to: SVG Repo, www.svgrepo.com, Transformed by: SVG Repo Mixer Tools -->
<svg version="1.1" id="Capa_1" xmlns="http://www.w3.org/2000/svg" xmlns:xlink="http://www.w3.org/1999/xlink" viewBox="0 0 58 58" xml:space="preserve" width="800px" height="800px" fill="#ffffff">
<g id="SVGRepo_bgCarrier" stroke-width="0"/>
<g id="SVGRepo_tracerCarrier" stroke-linecap="round" stroke-linejoin="round"/>
<g id="SVGRepo_iconCarrier"> <path style="fill:#AFB6BB;" d="M0,21v2h5c0.552,0,1,0.447,1,1s-0.448,1-1,1H0v1h5c0.552,0,1,0.447,1,1s-0.448,1-1,1H0v1h5 c0.552,0,1,0.447,1,1s-0.448,1-1,1H0v3h58V21H0z"/> <path style="fill:#839594;" d="M6,24c0-0.553-0.448-1-1-1H0v2h5C5.552,25,6,24.553,6,24z"/> <path style="fill:#839594;" d="M6,27c0-0.553-0.448-1-1-1H0v2h5C5.552,28,6,27.553,6,27z"/> <path style="fill:#839594;" d="M6,30c0-0.553-0.448-1-1-1H0v2h5C5.552,31,6,30.553,6,30z"/> <polygon style="fill:#E0E1E2;" points="55,44 3,44 0,37.828 0,34 58,34 58,37.828 "/> <polygon style="fill:#E0E1E2;" points="58,21 0,21 8,14 50,14 "/> <rect x="42" y="21" style="fill:#546A79;" width="6" height="23"/> <polygon style="fill:#38454F;" points="48,21 42,21 35,14 41,14 "/> <rect x="7" y="37" style="fill:#FFFFFF;" width="7" height="4"/> <rect x="18" y="37" style="fill:#FFFFFF;" width="7" height="4"/> <line style="fill:none;stroke:#DD352E;stroke-width:2;stroke-linecap:round;stroke-miterlimit:10;" x1="12" y1="26" x2="24" y2="26"/> </g>
</svg>